<svg xmlns="http://www.w3.org/2000/svg" width="11" height="16" viewBox="0 0 11 16">
    <path fill="#999" fill-rule="evenodd" d="M6.961 8.71c3.337.62 3.773 1.6 3.826 5.04.003.22.005.257.006.238v.267s-.795 1.65-5.396 1.65C.795 15.905 0 14.255 0 14.255l.001-.35c.001-.003.003-.062.007-.267.061-3.35.524-4.315 3.824-4.929 0 0 .47.617 1.565.617 1.094 0 1.564-.617 1.564-.617zM5.397 0c2.41 0 2.826 1.61 2.826 3.598 0 1.987-1.265 3.597-2.826 3.597-1.562 0-2.827-1.61-2.827-3.597C2.57 1.61 2.985 0 5.397 0z"/>
</svg>
