<svg xmlns="http://www.w3.org/2000/svg" width="20" height="13" viewBox="0 0 20 13">
    <path fill="#FFF" fill-rule="evenodd" d="M19.169 11.364c.44 0 .812.363.812.811l-.007.103c-.05.402-.391.71-.805.71H1.312c-.44 0-.812-.364-.812-.813l.006-.102c.05-.402.392-.71.806-.71zm0-5.682c.44 0 .812.363.812.812l-.007.102c-.05.402-.391.71-.805.71H1.312c-.44 0-.812-.364-.812-.812l.006-.103c.05-.402.392-.71.806-.71zm0-5.682c.44 0 .812.363.812.812l-.007.102c-.05.402-.391.71-.805.71H1.312C.872 1.623.5 1.26.5.811L.506.709C.556.307.898 0 1.312 0z"/>
</svg>
