<svg xmlns="http://www.w3.org/2000/svg" width="132" height="24" viewBox="0 0 132 24">
    <g fill="none" fill-rule="evenodd">
        <path fill="red" d="M124.248 13.386c0 3.164-1.593 4.347-3.576 4.347-1.984 0-3.569-1.183-3.569-4.347V.776h-6.759v12.61c0 7.026 3.577 10.26 10.328 10.26 6.75 0 10.327-3.009 10.327-10.26V.776h-6.75v12.61zM108.833 8.919c0-3.102-.633-4.417-1.952-5.735-1.507-1.509-3.878-2.408-7.31-2.408h-10.66V6.67c1.962 1.075 3.179 3.124 3.179 5.349s-1.217 4.274-3.178 5.35v5.897h6.353V16.55h2.772l4.385 6.716h7.18l-5.2-7.899c2.787-1.186 4.431-3.346 4.431-6.448zm-9.594 2.9h-3.97V6.282h3.97c2.125 0 3.573.962 3.573 2.76 0 1.75-1.413 2.777-3.573 2.777z"/>
        <ellipse cx="85.944" cy="12.017" fill="red" rx="4.963" ry="4.929"/>
        <path fill="#036" d="M78.6.776L71.056 9.849 71.056.776 64.309.776 64.309 23.266 71.056 23.266 71.056 17.341 73.438 14.976 78.998 23.266 86.538 23.266 77.807 11.032 86.514.776zM50.4 7.088c0-1.163.848-1.578 2.382-1.578 2.278.012 4.496.72 6.353 2.028l3.175-4.393C59.83 1.183 56.753.384 52.693.384c-5.467 0-8.618 2.974-8.618 7.154 0 4.692 3.756 5.937 8.618 7.03 3.1.706 3.853 1.222 3.853 2.153 0 1.027-.913 1.403-2.612 1.403-2.742-.052-5.386-1.026-7.5-2.76l-3.175 4.335c2.959 2.56 6.755 3.961 10.68 3.943 5.548 0 9.011-2.877 9.011-7.472 0-4.265-3.315-5.991-8.59-7.116-3.143-.701-3.96-.783-3.96-1.966z"/>
        <path fill="#036" d="M29.374 11.82V6.281h3.971c2.124 0 3.573.962 3.573 2.76 0 1.734-1.417 2.762-3.573 2.762h-3.97v.015zm11.617-8.64C39.483 1.67 37.113.772 33.68.772h-10.66v22.49h6.353V16.55h2.78l4.385 6.716h7.18l-5.212-7.899c2.788-1.19 4.432-3.346 4.432-6.448 0-3.102-.633-4.417-1.948-5.74zM15.083 13.11c0 3.134-1.803 4.879-4.365 4.879-2.561 0-4.365-1.652-4.365-4.878v-2.327c0-3.133 1.804-4.878 4.365-4.878 2.562 0 4.365 1.648 4.365 4.878v2.327zM10.52.389C4.096.388 0 3.633 0 10.858v2.326c0 7 4.1 10.47 10.519 10.47 6.42 0 10.519-2.858 10.519-10.082v-2.714c0-7-4.1-10.47-10.519-10.47z"/>
    </g>
</svg>
