<svg xmlns="http://www.w3.org/2000/svg" width="25" height="24" viewBox="0 0 25 24">
    <defs>
        <radialGradient id="prefix__a" cx="75.7%" cy="0%" r="48.787%" fx="75.7%" fy="0%" gradientTransform="matrix(0 1 -.51414 0 .757 -.757)">
            <stop offset="0%" stop-color="#FFCE47"/>
            <stop offset="100%" stop-color="#FCBE50"/>
        </radialGradient>
    </defs>
    <g fill="none" fill-rule="evenodd">
        <path fill="url(#prefix__a)" d="M6.82 12.662c-.058-2.067 1.012-4.003 2.793-5.054 1.781-1.05 3.993-1.05 5.774 0 1.781 1.051 2.851 2.987 2.793 5.054H6.82z"/>
        <path fill="#FBB556" fill-rule="nonzero" d="M8.955 1.361C8.53.308 6.949.945 7.375 2l1.307 3.234c.425 1.055 2.005.416 1.58-.639L8.954 1.361zm9.302.675C18.7.991 17.132.325 16.689 1.37l-1.364 3.212c-.443 1.045 1.125 1.712 1.568.667l1.364-3.213zm5.159 6.919c1.054-.425.416-2.006-.639-1.58l-3.234 1.307c-1.053.425-.416 2.005.639 1.58l3.234-1.307zM2.036 7.37C.991 6.927.325 8.495 1.37 8.94l3.212 1.363c1.045.445 1.712-1.125.667-1.568L2.036 7.37z"/>
        <rect width="18.182" height="1.353" x="3.409" y="12.662" fill="#000" fill-opacity=".12" rx=".596"/>
        <path fill="#7F7F7F" fill-rule="nonzero" d="M13.068 22.942c-.376 0-.682-.305-.682-.682v-3.849l-1.06 1.313c-.236.293-.666.339-.959.103-.293-.237-.339-.666-.102-.96l2.275-2.82c.273-.338.789-.338 1.062 0l2.27 2.821c.236.294.19.723-.104.959-.293.236-.722.19-.958-.104l-1.06-1.315v3.852c0 .377-.305.682-.682.682z"/>
    </g>
</svg>
