<svg xmlns="http://www.w3.org/2000/svg" width="24" height="19" viewBox="0 0 24 19">
    <g fill="none" fill-rule="evenodd">
        <path fill="#FF9C00" fill-rule="nonzero" d="M5.088 4.532l-2.35-2.353-.555.555L4.53 5.08c.174-.198.363-.38.558-.55h.001zm5.586-1.124L11.5.328l-.757-.204-.83 3.095c.257.047.51.108.762.189zm2.545 1.708l2.383-2.383-.554-.555-2.378 2.378c.199.174.379.364.549.56zM3.412 7.015l-3.208-.86L0 6.913l3.213.86c.05-.254.114-.507.198-.757h.001zm4.367-3.79L6.916 0l-.759.204.864 3.222c.249-.084.502-.152.758-.202zm-4.56 6.777L0 10.866l.204.757 3.219-.864c-.085-.247-.153-.5-.205-.756h.001zm10.196-1.125c0 2.51-2.036 4.545-4.547 4.545-2.511 0-4.546-2.036-4.546-4.546 0-2.51 2.036-4.546 4.546-4.546 2.511 0 4.546 2.036 4.546 4.546h.001z"/>
        <path fill="#FFF" d="M20.276 10.8c-.34 0-.667.05-.98.135-.386-2.69-2.695-4.761-5.494-4.761-2.431 0-4.493 1.566-5.246 3.74l-.333-.016c-1.738 0-3.195 1.197-3.596 2.812l-.1-.01c-1.519 0-2.751 1.232-2.751 2.754 0 1.509 1.215 2.73 2.719 2.75l-.008.003h15.681l-.005-.007.114.007c2.047 0 3.707-1.659 3.707-3.704 0-2.046-1.66-3.703-3.707-3.703h-.001z"/>
    </g>
</svg>
