<svg xmlns="http://www.w3.org/2000/svg" width="24" height="25" viewBox="0 0 24 25">
    <g fill="none" fill-rule="evenodd">
        <path fill="#FF9C00" fill-rule="nonzero" d="M5.016 4.679l-2.29-2.292-.54.54 2.287 2.288c.17-.194.354-.371.544-.536zm5.444-1.095l.806-3.002-.738-.197-.808 3.014c.25.046.498.105.742.186l-.002-.001zm2.48 1.664l2.323-2.322-.54-.54-2.317 2.316c.193.173.368.355.534.549v-.003zm-9.556 1.85L.258 6.261l-.198.737 3.129.84c.048-.25.113-.496.195-.74zM7.64 3.405L6.798.263l-.74.198.843 3.14c.242-.082.489-.148.739-.196zM3.196 10.01l-3.137.84.198.74 3.137-.84c-.085-.241-.151-.487-.201-.737l.003-.003zm9.935-1.097c0 2.446-1.983 4.429-4.43 4.429-2.45 0-4.433-1.984-4.433-4.43 0-2.443 1.984-4.427 4.43-4.427 2.446 0 4.43 1.984 4.43 4.43l.003-.002z"/>
        <path fill="#FFF" d="M19.758 10.523c-.33 0-.65.048-.956.131-.375-2.62-2.625-4.637-5.352-4.637-2.37 0-4.379 1.524-5.113 3.645l-.324-.016c-1.694 0-3.113 1.167-3.504 2.74l-.097-.01c-1.48 0-2.681 1.201-2.681 2.684 0 1.471 1.184 2.663 2.649 2.68l-.007.002h15.28l-.005-.008.11.006c1.996 0 3.614-1.616 3.614-3.61 0-1.993-1.617-3.607-3.61-3.607h-.004zM12.785 22.569l.005-3.29-2.597 2.265.012.006c-.155.134-.285.3-.38.497-.369.774-.04 1.701.738 2.072.777.374 1.706.049 2.077-.724.126-.268.171-.552.143-.826h.002z"/>
    </g>
</svg>
