<svg xmlns="http://www.w3.org/2000/svg" width="23" height="25" viewBox="0 0 23 25">
    <g fill="none" fill-rule="evenodd">
        <path fill="#FFB200" d="M5.708 0C7.38.806 8.531 2.517 8.531 4.495c0 2.757-2.234 4.99-4.99 4.99C2.158 9.485.905 8.92 0 8.01c.925 1.717 2.742 2.883 4.83 2.883 3.027 0 5.482-2.454 5.482-5.481C10.313 2.683 8.319.42 5.71 0z"/>
        <path fill="#FFF" d="M18.75 10.04c-.342 0-.672.05-.988.136-.388-2.708-2.713-4.792-5.53-4.792-2.449 0-4.525 1.575-5.284 3.767l-.335-.017c-1.75 0-3.216 1.206-3.62 2.832l-.1-.011c-1.53 0-2.771 1.242-2.771 2.773 0 1.521 1.223 2.752 2.737 2.77l-.007.002h15.79l-.005-.008.114.006c2.061 0 3.733-1.67 3.733-3.73s-1.67-3.728-3.73-3.728h-.004zM11.545 22.488l.004-3.399-2.683 2.34.012.006c-.16.138-.294.31-.391.513-.382.8-.042 1.759.761 2.142.803.386 1.764.05 2.146-.748.131-.277.178-.571.149-.854h.002z"/>
    </g>
</svg>
