<svg xmlns="http://www.w3.org/2000/svg" width="17" height="18" viewBox="0 0 17 18">
    <g fill="none" fill-rule="evenodd">
        <path fill="#727252" d="M7.77 13.655c-.11 0-.219-.003-.33-.013-1.769-.167-3.085-1.722-3.085-3.5V.31c0-.171-.139-.31-.31-.31H.32C.15 0 .01.139.01.31v9.756c0 4.297 3.48 7.93 7.76 7.934v-4.345z"/>
        <path fill="#E9EBEF" d="M4.045 0H.32C.15 0 .01.139.01.31v1.552h4.345V.31c0-.171-.139-.31-.31-.31z"/>
        <path fill="#C7CFE2" d="M0.01 1.862H4.3549999999999995V2.862H0.01z"/>
        <path fill="#8FB2FF" d="M7.77 13.655c.108 0 .218-.003.329-.013 1.769-.167 3.085-1.722 3.085-3.5V.31c0-.171.139-.31.31-.31h3.725c.171 0 .31.139.31.31v9.756c0 4.297-3.48 7.93-7.76 7.934v-4.345z"/>
        <path fill="#E9EBEF" d="M11.494 0h3.725c.171 0 .31.139.31.31v1.552h-4.345V.31c0-.171.139-.31.31-.31z"/>
        <path fill="#C7CFE2" d="M11.184 1.862H15.529V2.862H11.184z"/>
    </g>
</svg>
