<svg xmlns="http://www.w3.org/2000/svg" width="89" height="16" viewBox="0 0 89 16">
    <path fill="#FFF" fill-rule="evenodd" d="M7.078.262c4.319 0 7.078 2.346 7.078 7.076v1.835c0 4.882-2.759 6.814-7.078 6.814C2.758 15.987 0 13.641 0 8.911V7.338C0 2.456 2.756.262 7.078.262zm71.716.262v8.523c0 2.139 1.067 2.938 2.401 2.938 1.335 0 2.407-.8 2.407-2.938V.524h4.542v8.523c0 4.901-2.406 6.935-6.949 6.935-4.542 0-6.949-2.186-6.949-6.935V.524h4.548zM35.454.26c2.733 0 4.803.54 6.472 1.866l-2.136 2.97c-1.25-.884-2.743-1.363-4.275-1.37-1.032 0-1.602.28-1.602 1.066 0 .8.549.854 2.664 1.329 3.55.76 5.78 1.926 5.78 4.809 0 3.105-2.33 5.05-6.064 5.05-2.64.012-5.195-.935-7.186-2.665l2.136-2.93c1.423 1.172 3.202 1.83 5.047 1.866 1.143 0 1.758-.255 1.758-.949 0-.629-.507-.978-2.593-1.455-3.271-.739-5.799-1.58-5.799-4.751 0-2.825 2.12-4.836 5.799-4.836zm31.544.265c2.31 0 3.904.608 4.918 1.628.888.89 1.314 1.78 1.314 3.876 0 2.097-1.107 3.556-2.982 4.358l3.5 5.339h-4.832l-2.95-4.54H64.1v4.54h-4.275v-3.986c1.32-.727 2.139-2.112 2.139-3.616 0-1.503-.82-2.888-2.139-3.615V.524zm-19.187 0v6.133L52.887.524h5.325l-5.859 6.932 5.875 8.269h-5.073l-3.742-5.603-1.602 1.598v4.005h-4.54V.525h4.54zM22.663.522c2.31 0 3.904.608 4.918 1.627.885.894 1.311 1.782 1.311 3.879s-1.106 3.554-2.982 4.358l3.507 5.339h-4.831l-2.95-4.54h-1.871v4.537H15.49V.522zM7.212 3.992c-1.724 0-2.937 1.179-2.937 3.296v1.573c0 2.18 1.213 3.297 2.937 3.297 1.723 0 2.937-1.18 2.937-3.297V7.288c0-2.183-1.214-3.296-2.937-3.296zm50.617.799c1.844 0 3.339 1.491 3.339 3.33 0 1.84-1.495 3.332-3.34 3.332-1.844 0-3.339-1.491-3.339-3.331 0-1.84 1.495-3.331 3.34-3.331zm8.945-.545h-2.672v3.742h2.672c1.453 0 2.404-.694 2.404-1.876 0-1.216-.974-1.866-2.404-1.866zm-44.337 0h-2.672v3.732h2.672c1.45 0 2.404-.695 2.404-1.866 0-1.216-.975-1.866-2.404-1.866z"/>
</svg>
