<svg xmlns="http://www.w3.org/2000/svg" width="20" height="20" viewBox="0 0 20 20">
    <path fill="#FFF" d="M10 0c5.523 0 10 4.477 10 10s-4.477 10-10 10S0 15.523 0 10 4.477 0 10 0zm.75 1.533V3h-1.5V1.533C5.242 1.889 2.032 5.005 1.558 9H3v1.5H1.514c.258 4.498 3.981 8.012 8.486 8.012 4.505 0 8.228-3.514 8.486-8.012H17V9h1.442c-.474-3.995-3.684-7.111-7.692-7.467zm3.762 3.955c.285.286.293.746.018 1.042l-1.945 1.946c.768 1.301.448 2.97-.747 3.896-1.194.925-2.89.818-3.958-.25-1.069-1.069-1.176-2.765-.25-3.96.886-1.144 2.456-1.485 3.73-.836l.163.088L13.47 5.47c.296-.275.756-.267 1.042.018zM10 8.5c-.828 0-1.5.672-1.5 1.5s.672 1.5 1.5 1.5 1.5-.672 1.5-1.5-.672-1.5-1.5-1.5z"/>
</svg>
