<svg xmlns="http://www.w3.org/2000/svg" width="20" height="20" viewBox="0 0 20 20">
    <path fill="#FF9C00" fill-rule="evenodd" d="M8.859 4.024L7.94.6l-.804.215.917 3.42c.267-.088.533-.16.807-.211h-.002zM4.223 8.047L.816 7.135.6 7.938l3.41.913c.054-.27.122-.538.213-.804zM6 5.41L3.505 2.913l-.589.589 2.493 2.493c.185-.212.385-.404.592-.584zm6.02-1.158l.92-3.44-.803-.215-.92 3.433c.27.054.537.127.803.22v.002zm3.987 4.613l3.469-.93-.216-.803-3.466.93c.088.263.16.531.213.804v-.001zm-1.375-2.837l2.53-2.53-.588-.588-2.524 2.523c.211.187.402.387.582.595zm-.597 8.59l2.541 2.542.59-.588-2.542-2.54c-.184.212-.382.407-.589.587zm1.755-2.613l3.471.932.215-.805-3.472-.93c-.054.269-.122.538-.214.804v-.001zM4.017 11.22L.6 12.135l.216.804 3.418-.916c-.089-.262-.16-.53-.215-.803h-.002zm7.193 4.795l.929 3.461.804-.215-.929-3.464c-.26.09-.529.163-.801.218h-.003zm-3.151-.194l-.922 3.44.804.215.926-3.45c-.274-.05-.542-.115-.808-.205zm-2.637-1.756l-2.509 2.508.59.59 2.511-2.512c-.213-.182-.407-.378-.59-.586h-.002zm7.028-8.218c-2.315-1.338-5.275-.543-6.612 1.771-1.337 2.315-.543 5.275 1.772 6.613 2.315 1.336 5.276.543 6.611-1.773 1.338-2.315.545-5.275-1.771-6.611z"/>
</svg>
