<svg xmlns="http://www.w3.org/2000/svg" width="15" height="19" viewBox="0 0 15 19">
    <g fill="none" fill-rule="evenodd">
        <path fill="#8FB2FF" d="M12.258 6.333c-.693-1.138-2.19-3.012-4.51-5.65-.27-.308-.75-.307-1.02.001C4.416 3.328 2.918 5.201 2.22 6.33c-2.298 3.718-2.47 7.187.1 9.731 2.78 2.753 7.054 2.752 9.835 0 2.568-2.54 2.398-5.955.102-9.727z"/>
        <path fill="#FFF" d="M7.905 14.745c1.467-.488 2.477-1.865 2.477-3.435 0-.375-.304-.679-.679-.679-.374 0-.678.304-.678.679 0 .981-.632 1.842-1.548 2.147-.356.118-.548.502-.43.858.118.355.502.548.858.43z"/>
    </g>
</svg>
