<svg xmlns="http://www.w3.org/2000/svg" width="16" height="21" viewBox="0 0 16 21">
    <path fill="#FFF" fill-rule="evenodd" d="M7.436.756c.298-.34.829-.342 1.128-.001C11.127 3.67 12.783 5.742 13.549 7c2.537 4.169 2.725 7.943-.114 10.751-3.073 3.041-7.796 3.042-10.87 0-2.84-2.812-2.65-6.646-.11-10.755.771-1.248 2.426-3.318 4.98-6.24zm.566 1.635C5.818 4.912 4.39 6.717 3.73 7.784c-2.212 3.58-2.366 6.668-.11 8.901 2.488 2.463 6.27 2.463 8.76 0 2.253-2.23 2.102-5.264-.114-8.905-.652-1.071-2.078-2.876-4.265-5.39zm2.723 9.359c.414 0 .75.336.75.75 0 1.736-1.116 3.258-2.738 3.797-.393.13-.818-.082-.949-.476-.13-.393.083-.817.476-.948 1.013-.336 1.71-1.288 1.71-2.373 0-.414.337-.75.75-.75z"/>
</svg>
