<svg xmlns="http://www.w3.org/2000/svg" width="21" height="16" viewBox="0 0 21 16">
    <path fill="#FFF" d="M5 7.5h5.688c1.587 0 3.001-1 3.532-2.495.531-1.495.064-3.163-1.167-4.164S10.093-.28 8.738.546c-.341.22-.444.673-.232 1.02.211.347.66.462 1.013.26.814-.493 1.85-.421 2.587.18.738.6 1.018 1.6.7 2.497-.319.896-1.167 1.496-2.118 1.497L5 6.001c-.414 0-.75.336-.75.75s.336.75.75.75V7.5zM1 11h9.966c.635 0 1.2.4 1.413.998.213.598.026 1.265-.466 1.665-.492.401-1.184.448-1.726.119-.353-.207-.807-.093-1.02.257-.213.35-.106.805.24 1.024 1.085.66 2.467.565 3.452-.235.985-.801 1.359-2.136.934-3.332C13.368 10.3 12.237 9.5 10.967 9.5H.999c-.268 0-.515.143-.65.375-.133.233-.133.518.001.75.134.232.382.375.65.375zm14.667-2h2.251c1.27 0 2.401-.8 2.826-1.996.425-1.196.05-2.53-.934-3.332-.985-.8-2.367-.895-3.452-.235-.341.22-.444.673-.232 1.02.211.347.66.462 1.013.26.542-.33 1.234-.282 1.726.119.492.4.679 1.067.466 1.665-.212.598-.778.998-1.413.998l-2.251.001c-.414 0-.75.336-.75.75s.336.75.75.75z"/>
</svg>
