<svg xmlns="http://www.w3.org/2000/svg" width="98" height="22" viewBox="0 0 98 22">
    <g fill="none" fill-rule="evenodd">
        <g>
            <path fill="#ED1E24" fill-rule="nonzero" d="M7.072 10.006h-.906c-1.423 0-2.803 1.035-2.803 3.623 0 2.695 1.294 3.795 2.61 3.795h1.1v-7.418zm1.424 8.798H6.037c-2.416 0-4.464-1.833-4.464-5.391 0-2.135.992-3.71 2.76-4.485l-3.3-5.953c-.107-.194 0-.345.173-.345h1.531c.13 0 .216.043.26.151l2.997 5.844h1.078V2.781c0-.065.065-.15.151-.15H8.56c.13 0 .173.064.173.171V18.59c0 .15-.086.215-.237.215z" transform="translate(0 1) matrix(1 0 0 -1 .426 19.922)"/>
            <path fill="#231F20" d="M16.602 13.443h-1.337c-.108 0-.173-.086-.173-.151V9.173h-2.48v4.119c0 .108-.043.151-.151.151h-1.337c-.107 0-.172-.065-.172-.151V2.811c0-.108.043-.172.15-.172h1.359c.086 0 .151.064.151.172v5.003h2.48V2.811c0-.108.065-.172.173-.172h1.337c.108 0 .15.086.15.172v10.481c0 .086-.064.151-.15.151M47.13 3.329l-.172.733c-.022.065-.043.086-.108.086-.108 0-.69-.237-1.531-.237-1.639 0-2.437 1.575-2.437 4.076 0 2.2.668 4.378 1.79 4.378.301 0 .668-.086 1.25-.626.065-.065.108-.086.173-.086.065 0 .13.043.194.151l.583.95c.043.063.064.128.064.193 0 .086-.086.15-.215.216-.885.453-1.488.539-2.006.539-2.027 0-3.601-2.415-3.601-6.19 0-3.256 1.51-5.132 3.666-5.132.906 0 1.876.431 2.264.712.086.064.108.15.086.237M37.757 8.57l2.589 4.722c.043.065.02.151-.065.151h-1.273c-.367 0-.496-.13-.625-.41l-1.94-4.032c-.109-.238-.217-.389-.325-.454v4.745c0 .086-.043.151-.13.151h-1.401c-.064 0-.13-.065-.13-.15V2.79c0-.065.044-.151.13-.151h1.402c.086 0 .13.065.13.15v5.414c.064-.043.107-.108.15-.194l2.459-5.047c.13-.258.323-.323.604-.323h1.38c.086 0 .108.086.064.15l-3.019 5.78" transform="translate(0 1) matrix(1 0 0 -1 .426 19.922)"/>
            <path fill="#231F20" fill-rule="nonzero" d="M23.071 3.997h-3.127c1.1 1.876 1.532 3.99 1.683 6.578.043.56.064 1.142.064 1.51h1.38V3.997zm2.33 0h-.26c-.323 0-.41.13-.41.389v8.906c0 .108-.042.15-.129.15H20.29c-.108 0-.173-.063-.173-.15v-.776c0-2.61-.15-5.974-1.531-8.519h-.475c-.13 0-.172-.065-.172-.172V.676c0-.108.086-.15.15-.15h1.036c.237 0 .323.172.323.323v1.79h4.615V.676c0-.086.065-.15.151-.15h1.1c.13 0 .26.107.26.323v2.976c0 .107-.066.172-.174.172zM29.562 9.022c-.495 0-1.272-.086-1.272-.086s0 .323.043.669c.194 1.832.647 2.76 1.402 2.76.69 0 1.121-.949 1.23-2.61.02-.345.02-.733.02-.733h-1.423zm.238 4.68c-2.33 0-3.364-2.933-3.364-6.125 0-3.256 1.466-5.197 3.623-5.197 1.056 0 1.984.41 2.458.712.086.043.108.107.086.194l-.172.733c-.022.086-.065.129-.173.129-.086 0-.712-.237-1.596-.237-1.66 0-2.437 1.445-2.437 3.343v.51s.842-.1 1.337-.1h3.15v.905c0 3.343-1.187 5.133-2.912 5.133z" transform="translate(0 1) matrix(1 0 0 -1 .426 19.922)"/>
        </g>
        <path fill="#000" fill-rule="nonzero" stroke="#231F20" stroke-width=".1" d="M96.128 15.134V9.447c0-2.091-.98-3.006-2.68-3.006-1.177 0-2.026.523-2.484 1.046l.262.915c.522-.72 1.307-1.112 2.222-1.112 1.111 0 1.765.654 1.765 2.288v1.307h-1.111c-2.288 0-3.465 1.177-3.465 3.4 0 1.895.98 3.006 2.353 3.006 1.046 0 1.765-.654 2.288-1.634.065.719.196 1.111.262 1.438h.915c-.196-.392-.327-1.177-.327-1.96h0zm-.915-.654c-.392 1.112-1.046 2.027-2.027 2.027-.98 0-1.634-.85-1.634-2.353 0-1.83.85-2.615 2.55-2.615h1.11v2.941zm-6.994 1.83V6.638h-4.51s-.066 3.333-.327 5.883c-.196 1.96-.588 3.398-1.242 3.725h-.457v2.81h.784l.13-2.025h5.687l.13 2.026h.785v-2.81h-.98v.065zm-.98 0H83.25c.523-.653.785-1.764.98-3.529.262-2.418.327-5.36.327-5.36h2.68v8.89h0zm-9.74-9.87c-1.83 0-3.203 2.027-3.203 5.491 0 3.595 1.373 5.36 3.203 5.36 1.83 0 3.203-2.026 3.203-5.49 0-3.595-1.373-5.36-3.203-5.36zm0 10.067c-1.176 0-2.222-1.373-2.222-4.641 0-3.203.98-4.64 2.222-4.64s2.223 1.372 2.223 4.64c0 3.137-.98 4.64-2.223 4.64zM73.316 7.42v-.784h-4.445v10.458h.98V7.421h3.465zm-9.412-.98c-1.83 0-3.203 2.026-3.203 5.49 0 3.595 1.372 5.36 3.203 5.36 1.83 0 3.202-2.026 3.202-5.49 0-3.595-1.438-5.36-3.202-5.36zm0 10.066c-1.242 0-2.223-1.373-2.223-4.641 0-3.203.98-4.64 2.223-4.64 1.242 0 2.222 1.372 2.222 4.64 0 3.137-.98 4.64-2.222 4.64zm-6.014.588h1.046V2.061H52.4v15.034h1.045V2.911h4.445v14.184z" transform="translate(0 1)"/>
    </g>
</svg>
